<?xml version="1.0" standalone="no"?>
<!DOCTYPE svg PUBLIC "-//W3C//DTD SVG 20010904//EN"
 "http://www.w3.org/TR/2001/REC-SVG-20010904/DTD/svg10.dtd">
<svg version="1.0" xmlns="http://www.w3.org/2000/svg"
 width="362.000000pt" height="316.000000pt" viewBox="0 0 362.000000 316.000000"
 preserveAspectRatio="xMidYMid meet">
<metadata>
Created by potrace 1.16, written by Peter Selinger 2001-2019
</metadata>
<g transform="translate(0.000000,316.000000) scale(0.100000,-0.100000)"
fill="#000000" stroke="none">
<path d="M2228 2471 c-54 -12 -126 -19 -195 -19 -196 -1 -308 -56 -248 -122
13 -15 12 -19 -14 -44 -17 -17 -64 -40 -115 -57 -159 -53 -254 -110 -300 -180
-44 -65 -45 -94 -4 -132 19 -17 67 -48 107 -67 l72 -34 -8 -51 c-26 -164 31
-409 117 -495 9 -9 19 -38 22 -63 6 -52 37 -101 78 -122 68 -35 241 -37 328
-4 21 8 23 7 17 -8 -17 -42 -18 -170 0 -222 16 -48 16 -52 0 -68 -12 -12 -16
-27 -12 -55 3 -26 -1 -49 -15 -75 -29 -57 -21 -141 19 -190 31 -39 67 -53 86
-34 17 17 34 13 40 -9 3 -11 0 -20 -6 -20 -21 0 -213 -100 -231 -119 -10 -11
-16 -31 -14 -47 3 -24 10 -30 53 -41 59 -16 325 -11 390 8 22 6 74 14 115 18
119 10 155 48 130 139 -8 33 -7 47 7 77 20 42 13 62 -33 85 -25 13 -29 22 -32
61 l-3 46 60 5 c89 6 93 16 32 86 l-52 59 21 47 c11 26 23 65 26 86 6 37 10
40 58 56 28 9 57 21 64 27 35 28 -7 155 -71 210 l-31 27 89 0 c50 0 132 -6
184 -14 51 -8 99 -12 106 -9 7 2 19 18 26 35 30 72 -49 276 -139 360 l-49 46
73 17 c39 9 105 20 146 23 l73 7 3 43 c11 151 -152 327 -371 401 l-48 17 58
43 c32 24 77 53 101 64 76 38 54 71 -93 142 -130 62 -194 76 -375 81 -126 3
-171 0 -242 -15z m427 -56 c66 -14 235 -88 235 -103 0 -4 -26 -24 -58 -44 -75
-49 -165 -133 -160 -150 3 -8 24 -13 59 -14 132 -3 327 -133 384 -256 41 -87
38 -92 -56 -106 -101 -15 -259 -62 -266 -79 -7 -18 15 -43 37 -43 29 0 114
-85 147 -147 33 -61 63 -152 63 -188 0 -21 -1 -21 -82 -9 -104 16 -348 17
-459 3 -167 -22 -260 -51 -365 -118 -61 -39 -153 -55 -271 -49 -63 3 -88 9
-104 24 -27 24 -49 74 -49 112 0 17 -9 37 -21 48 -75 67 -136 286 -123 433 l7
70 28 -21 c33 -25 62 -18 57 14 -2 17 -34 39 -138 94 -94 50 -136 78 -138 91
-2 11 14 38 37 65 60 68 197 135 379 184 8 2 12 10 9 17 -6 17 75 72 142 98
81 30 226 67 328 84 102 17 270 12 378 -10z m-20 -1209 c42 -25 85 -78 104
-129 16 -41 16 -41 -39 -60 -58 -21 -78 -38 -85 -75 -17 -82 -32 -117 -50
-117 -31 0 -28 -20 13 -71 64 -82 69 -79 -73 -40 -27 7 -51 10 -53 5 -2 -5
-13 -9 -25 -9 -64 -1 -67 -5 -67 -106 0 -92 0 -94 -25 -100 -14 -4 -28 -4 -31
-1 -3 3 -1 30 6 61 8 39 8 66 1 94 -9 31 -8 45 5 71 19 38 12 77 -16 86 -19 6
-20 15 -20 141 0 122 -2 136 -21 155 -20 20 -21 20 -52 2 -42 -25 -59 -88 -55
-206 2 -48 0 -87 -3 -87 -13 0 -32 89 -31 153 0 46 6 79 19 104 34 65 164 125
274 127 51 1 61 -2 90 -29 58 -55 92 -165 51 -165 -32 0 -110 -31 -116 -45 -9
-24 13 -28 73 -15 31 6 66 14 78 16 50 9 37 132 -22 208 -18 24 -31 47 -28 50
14 13 59 5 98 -18z m-393 -133 c3 -10 3 -71 0 -135 l-5 -118 -29 0 -30 0 4
113 c4 112 16 157 42 157 8 0 16 -8 18 -17z m44 -286 c4 -3 3 -22 0 -42 -5
-27 -12 -35 -28 -35 -22 0 -22 0 1 -22 21 -19 23 -28 18 -85 -7 -90 -22 -109
-94 -116 -51 -6 -60 -4 -75 14 -24 29 -24 109 1 157 14 27 16 43 9 61 -12 34
-4 49 34 67 31 14 121 14 134 1z"/>
<path d="M1260 689 c-57 -20 -125 -35 -206 -44 -146 -16 -195 -29 -219 -55
-10 -11 -27 -20 -37 -20 -11 0 -33 -13 -49 -29 -39 -40 -39 -79 2 -126 18 -20
30 -37 28 -39 -2 -2 -26 -9 -54 -15 -136 -33 -123 -97 28 -130 26 -6 99 -11
161 -11 62 0 155 -7 207 -16 135 -23 292 -16 379 18 99 39 97 38 223 53 126
15 170 30 175 58 9 44 -87 97 -175 97 -39 0 -43 2 -43 24 0 15 7 27 18 30 59
19 92 119 55 165 -22 27 -64 30 -142 11 -47 -11 -50 -10 -95 21 -66 47 -140
50 -256 8z m205 -95 c26 -17 32 -38 15 -49 -6 -4 -26 3 -45 15 l-36 22 -20
-26 c-24 -31 -53 -33 -94 -6 -38 25 -60 25 -92 0 -14 -11 -40 -20 -57 -20 -33
0 -96 33 -96 50 0 16 38 12 66 -6 24 -16 27 -16 54 5 35 25 107 28 150 6 27
-14 30 -14 40 5 13 25 79 27 115 4z m152 -120 c20 -32 12 -48 -43 -86 -34 -23
-60 -29 -214 -48 -283 -35 -364 -37 -444 -10 -62 20 -88 41 -72 57 3 4 22 -1
42 -11 l36 -17 -6 34 c-5 25 -2 37 11 49 46 40 64 43 303 49 129 3 265 6 302
7 63 2 69 0 85 -24z"/>
<path d="M480 237 c-46 -16 -52 -49 -14 -74 41 -26 173 -26 203 1 26 24 26 38
2 61 -25 22 -141 29 -191 12z"/>
</g>
</svg>
