<?xml version="1.0" standalone="no"?>
<!DOCTYPE svg PUBLIC "-//W3C//DTD SVG 20010904//EN"
 "http://www.w3.org/TR/2001/REC-SVG-20010904/DTD/svg10.dtd">
<svg version="1.0" xmlns="http://www.w3.org/2000/svg"
 width="358.000000pt" height="268.000000pt" viewBox="0 0 358.000000 268.000000"
 preserveAspectRatio="xMidYMid meet">
<metadata>
Created by potrace 1.16, written by Peter Selinger 2001-2019
</metadata>
<g transform="translate(0.000000,268.000000) scale(0.100000,-0.100000)"
fill="#000000" stroke="none">
<path d="M455 2550 c-204 -7 -265 -16 -294 -45 -10 -10 -18 -43 -23 -88 -13
-142 -29 -1289 -19 -1462 5 -93 9 -287 10 -430 2 -284 7 -376 25 -399 9 -13
58 -16 306 -19 384 -6 645 2 624 18 -9 6 -24 36 -34 65 -10 30 -29 63 -42 73
-13 10 -61 25 -106 34 -45 9 -82 20 -82 25 0 5 6 23 14 42 34 81 150 172 267
207 l66 20 121 -50 c67 -27 150 -57 184 -66 83 -21 103 -35 133 -96 35 -68 42
-134 21 -195 -9 -26 -16 -49 -16 -51 0 -2 98 -2 218 -2 119 1 209 3 200 6 -14
3 -15 9 -6 33 13 39 64 83 146 125 37 19 82 44 100 56 34 22 38 17 22 -25 -6
-17 -21 -28 -48 -36 -36 -9 -71 -35 -61 -44 2 -2 33 3 68 12 53 13 71 13 110
3 54 -15 104 -50 134 -97 l22 -34 98 0 98 0 14 32 c9 23 10 38 3 51 -14 28 13
62 66 82 83 32 168 2 210 -74 14 -27 26 -58 26 -70 0 -21 3 -21 180 -21 181 0
181 0 204 25 13 14 27 38 30 53 3 15 11 369 16 787 11 785 2 1434 -20 1507 -9
31 -17 39 -48 48 -41 11 -2583 11 -2937 0z m1445 -175 c18 -22 5 -196 -27
-342 -37 -174 -38 -183 -19 -183 21 0 42 43 56 118 7 34 15 62 18 62 2 0 35
-25 71 -56 84 -70 170 -169 228 -261 25 -40 49 -73 53 -73 4 0 13 6 19 14 13
16 6 36 -32 88 -12 15 -18 30 -16 33 3 2 55 7 115 11 107 7 227 -4 317 -27 38
-10 39 -11 32 -47 -14 -77 -91 -198 -225 -355 l-65 -75 -6 32 c-3 17 -9 37
-13 44 -18 29 -26 6 -26 -75 0 -204 -36 -371 -112 -523 -50 -100 -53 -108 -50
-171 4 -59 1 -68 -23 -97 -18 -22 -44 -37 -83 -48 -83 -24 -302 -14 -437 20
-155 39 -393 124 -498 178 -133 67 -410 118 -648 118 -95 0 -139 4 -139 11 0
6 7 38 16 72 26 101 82 199 176 309 56 65 56 68 -14 134 -75 73 -272 194 -315
194 -21 0 -15 16 26 67 52 66 123 127 203 175 79 47 202 97 239 98 15 0 31 6
37 13 21 25 -13 190 -62 301 l-25 56 27 14 c95 49 256 71 419 57 154 -14 273
-31 273 -41 0 -4 -26 -24 -57 -45 -74 -49 -247 -219 -241 -236 10 -29 38 -18
89 36 154 161 402 325 591 390 85 29 111 31 128 10z m1335 -319 c48 -48 42
-138 -12 -167 -70 -37 -153 2 -153 72 0 88 109 151 165 95z m-455 -1358 c124
-33 227 -63 229 -65 3 -2 0 -8 -6 -14 -8 -8 -68 3 -215 40 -112 28 -211 51
-219 51 -10 0 -27 -30 -48 -82 -19 -46 -59 -136 -89 -200 -46 -100 -59 -118
-78 -118 -21 0 -17 12 68 203 49 111 94 212 99 225 4 12 14 22 21 22 7 0 114
-28 238 -62z"/>
<path d="M1924 781 c-57 -26 -68 -57 -34 -91 28 -28 132 -28 178 0 40 24 45
70 10 94 -30 21 -104 20 -154 -3z"/>
<path d="M1143 478 c-34 -38 -46 -93 -40 -187 3 -47 11 -104 18 -126 13 -38
16 -40 59 -41 25 -1 35 0 23 3 -29 6 -43 53 -50 164 -5 82 8 159 26 159 4 0
13 -48 19 -107 14 -123 48 -213 80 -213 19 0 19 2 -3 68 -13 37 -28 113 -34
170 -5 57 -15 110 -22 118 -17 21 -53 17 -76 -8z"/>
</g>
</svg>
