<?xml version="1.0" standalone="no"?>
<!DOCTYPE svg PUBLIC "-//W3C//DTD SVG 20010904//EN"
 "http://www.w3.org/TR/2001/REC-SVG-20010904/DTD/svg10.dtd">
<svg version="1.0" xmlns="http://www.w3.org/2000/svg"
 width="240.000000pt" height="240.000000pt" viewBox="0 0 240.000000 240.000000"
 preserveAspectRatio="xMidYMid meet">
<metadata>
Created by potrace 1.16, written by Peter Selinger 2001-2019
</metadata>
<g transform="translate(0.000000,240.000000) scale(0.100000,-0.100000)"
fill="#000000" stroke="none">
<path d="M1475 2288 c-11 -6 -46 -28 -77 -49 -32 -22 -66 -39 -77 -39 -58 0
-254 -83 -341 -143 l-35 -24 -55 37 c-73 49 -143 84 -209 104 -71 21 -87 20
-111 -4 -17 -17 -20 -33 -20 -109 0 -105 23 -248 50 -309 19 -42 19 -47 4
-101 -19 -65 -21 -192 -5 -272 10 -46 9 -61 -5 -94 -37 -89 29 -176 166 -220
68 -22 84 -35 44 -35 -48 0 -122 -30 -144 -57 -22 -28 -26 -76 -10 -117 8 -21
5 -30 -15 -52 -31 -33 -31 -41 -3 -71 18 -19 19 -23 5 -23 -46 0 -64 -106 -26
-154 25 -32 89 -66 124 -66 36 0 90 24 119 53 l24 24 7 -56 c3 -31 8 -64 11
-73 4 -12 0 -18 -11 -18 -9 0 -30 -7 -47 -16 -28 -15 -30 -19 -25 -57 l6 -42
-57 -28 c-77 -37 -145 -99 -140 -129 4 -32 55 -38 258 -31 134 4 167 8 178 21
11 14 12 14 12 0 0 -13 20 -17 110 -23 117 -7 273 1 303 17 9 5 17 17 17 27 0
24 -92 109 -153 141 -34 18 -45 29 -40 40 12 27 15 88 5 94 -5 3 -28 8 -51 10
-23 2 -43 5 -45 7 -2 2 -6 25 -9 50 l-6 46 40 1 c52 2 87 21 132 71 40 44 43
51 26 68 -8 8 -20 7 -45 -3 -18 -8 -45 -14 -60 -14 -21 0 -25 3 -19 18 4 9 10
26 13 36 5 17 13 18 108 13 101 -6 104 -5 109 16 3 12 1 45 -5 72 -6 28 -12
56 -13 64 -1 10 13 18 42 24 36 7 46 6 53 -7 5 -9 23 -23 40 -32 29 -15 32
-15 58 4 25 19 28 19 43 4 10 -9 34 -16 59 -17 24 0 59 -4 79 -9 62 -13 140 9
181 52 55 57 72 98 73 172 0 53 -5 76 -27 119 -21 40 -25 57 -18 71 17 31 11
58 -18 91 -19 21 -41 34 -67 38 -41 6 -56 24 -30 35 9 3 59 9 113 12 104 7
122 14 122 48 -1 53 -89 186 -186 280 l-37 35 33 18 c66 37 95 59 98 77 3 13
-20 42 -74 93 -88 84 -206 148 -331 179 -70 18 -72 19 -88 61 -9 24 -25 48
-35 53 -24 13 -70 12 -95 -2z m84 -69 c12 -34 30 -205 34 -314 2 -63 4 -70 22
-70 18 0 20 8 23 85 2 46 -2 115 -8 153 -6 39 -9 72 -6 74 7 8 134 -36 212
-73 44 -21 97 -57 140 -97 l69 -64 -54 -29 c-64 -34 -104 -70 -98 -87 2 -7 14
-17 26 -23 49 -25 160 -154 199 -230 l21 -41 -88 -6 c-150 -10 -209 -40 -167
-86 15 -16 13 -19 -20 -35 -20 -9 -37 -16 -38 -14 -34 80 -109 129 -172 114
-31 -8 -70 -48 -78 -82 -7 -25 8 -64 55 -146 29 -52 19 -78 -30 -78 -43 0 -56
-11 -66 -57 -6 -28 -11 -33 -36 -33 -28 0 -29 2 -18 23 10 19 8 19 -15 -5 -17
-17 -41 -29 -69 -33 -83 -13 -399 -10 -477 4 -113 20 -223 65 -259 107 -35 39
-37 57 -17 111 21 56 30 102 15 83 -8 -12 -9 -9 -4 13 3 16 2 26 -3 23 -19
-11 -22 130 -6 215 21 107 20 112 -7 184 -15 40 -23 81 -23 124 0 37 -3 56 -7
45 -4 -11 -8 16 -10 65 -2 45 -1 88 3 94 15 24 167 -32 287 -106 32 -19 33
-21 15 -34 -16 -12 -16 -15 -3 -28 13 -14 21 -10 74 30 75 58 161 106 250 140
l70 26 -63 -60 c-34 -32 -62 -64 -62 -70 0 -23 27 -9 80 44 78 77 227 175 267
175 26 0 33 -5 42 -31z m178 -799 c18 -10 40 -31 49 -45 17 -26 16 -27 -18
-63 -20 -20 -41 -47 -47 -59 -17 -33 -13 -81 8 -102 20 -20 22 -37 21 -145 0
-37 5 -67 15 -82 26 -41 -8 -30 -44 14 l-30 37 -1 -27 c0 -21 -6 -29 -27 -34
-48 -12 -93 66 -93 161 0 53 11 67 46 63 24 -2 30 -8 34 -37 3 -19 10 -36 16
-38 7 -2 11 29 11 94 1 95 0 100 -33 153 -19 31 -34 61 -34 68 0 21 47 62 72
62 13 0 37 -9 55 -20z m281 -76 c26 -18 29 -59 7 -91 -11 -15 -12 -24 -4 -29
22 -13 49 -90 49 -138 0 -59 -29 -125 -72 -161 -53 -44 -179 -29 -208 25 -8
15 -7 31 1 60 9 31 10 43 1 52 -7 7 -12 28 -12 48 0 24 -7 43 -20 55 -11 10
-20 28 -20 39 0 93 201 194 278 140z m-708 -334 c11 -7 2 -10 -33 -10 -40 0
-49 -4 -56 -22 -20 -53 23 -80 130 -82 l79 -1 15 -38 c29 -73 26 -78 -62 -71
-43 4 -82 10 -87 15 -18 16 -23 10 -45 -50 -12 -33 -39 -86 -60 -118 -42 -62
-42 -61 -16 -205 4 -22 1 -28 -14 -28 -15 0 -21 13 -31 63 -6 35 -10 72 -8 83
3 17 -5 19 -82 24 -47 3 -76 8 -65 11 l20 6 -20 -1 c-22 -1 -23 -7 -12 -123 6
-59 4 -73 -7 -73 -13 0 -24 54 -31 147 -1 18 -14 48 -29 68 -84 110 -86 230
-5 328 50 60 76 69 239 77 80 4 150 8 155 8 6 1 17 -3 25 -8z m243 -27 c3 -16
4 -29 2 -31 -8 -8 -131 -22 -200 -22 -74 0 -105 9 -105 31 0 3 35 9 78 13 42
4 102 13 132 20 81 20 87 19 93 -11z m-758 -182 c-8 -59 8 -124 42 -170 l26
-34 -24 -19 c-67 -52 -117 -59 -173 -23 -28 18 -48 72 -39 105 7 27 21 25 29
-5 3 -13 12 -29 19 -35 17 -14 14 96 -4 128 -10 19 -10 26 1 39 12 16 104 63
121 63 5 0 6 -22 2 -49z"/>
<path d="M1250 1512 c-16 -13 -24 -32 -27 -69 -7 -68 8 -95 50 -91 27 3 34 9
45 42 14 43 7 99 -15 121 -19 19 -26 19 -53 -3z"/>
<path d="M808 1358 c-16 -13 -22 -29 -19 -56 2 -22 64 -52 107 -52 82 0 83 60
2 99 -51 24 -68 26 -90 9z"/>
<path d="M1873 568 c-149 -103 -198 -191 -139 -247 28 -26 172 -91 203 -91 28
0 39 18 22 35 -8 7 -46 24 -84 39 -85 31 -115 51 -115 75 0 22 70 96 143 150
32 23 57 48 57 55 0 29 -31 23 -87 -16z"/>
</g>
</svg>
